<svg width="144" height="64" viewBox="0 0 144 64" fill="none" xmlns="http://www.w3.org/2000/svg">
<path fill-rule="evenodd" clip-rule="evenodd" d="M2 4C3.10461 4 4 3.10461 4 2C4 0.895386 3.10461 0 2 0C0.895386 0 0 0.895386 0 2C0 3.10461 0.895386 4 2 4ZM22 4C23.1046 4 24 3.10461 24 2C24 0.895386 23.1046 0 22 0C20.8954 0 20 0.895386 20 2C20 3.10461 20.8954 4 22 4ZM4 22C4 23.1046 3.10461 24 2 24C0.895386 24 0 23.1046 0 22C0 20.8954 0.895386 20 2 20C3.10461 20 4 20.8954 4 22ZM22 24C23.1046 24 24 23.1046 24 22C24 20.8954 23.1046 20 22 20C20.8954 20 20 20.8954 20 22C20 23.1046 20.8954 24 22 24ZM42 4C43.1046 4 44 3.10461 44 2C44 0.895386 43.1046 0 42 0C40.8954 0 40 0.895386 40 2C40 3.10461 40.8954 4 42 4ZM62 4C63.1046 4 64 3.10461 64 2C64 0.895386 63.1046 0 62 0C60.8954 0 60 0.895386 60 2C60 3.10461 60.8954 4 62 4ZM44 22C44 23.1046 43.1046 24 42 24C40.8954 24 40 23.1046 40 22C40 20.8954 40.8954 20 42 20C43.1046 20 44 20.8954 44 22ZM62 24C63.1046 24 64 23.1046 64 22C64 20.8954 63.1046 20 62 20C60.8954 20 60 20.8954 60 22C60 23.1046 60.8954 24 62 24ZM84 2C84 3.10461 83.1046 4 82 4C80.8954 4 80 3.10461 80 2C80 0.895386 80.8954 0 82 0C83.1046 0 84 0.895386 84 2ZM104 2C104 3.10461 103.105 4 102 4C100.895 4 100 3.10461 100 2C100 0.895386 100.895 0 102 0C103.105 0 104 0.895386 104 2ZM82 24C83.1046 24 84 23.1046 84 22C84 20.8954 83.1046 20 82 20C80.8954 20 80 20.8954 80 22C80 23.1046 80.8954 24 82 24ZM104 22C104 23.1046 103.105 24 102 24C100.895 24 100 23.1046 100 22C100 20.8954 100.895 20 102 20C103.105 20 104 20.8954 104 22ZM122 4C123.105 4 124 3.10461 124 2C124 0.895386 123.105 0 122 0C120.895 0 120 0.895386 120 2C120 3.10461 120.895 4 122 4ZM142 4C143.105 4 144 3.10461 144 2C144 0.895386 143.105 0 142 0C140.895 0 140 0.895386 140 2C140 3.10461 140.895 4 142 4ZM124 22C124 23.1046 123.105 24 122 24C120.895 24 120 23.1046 120 22C120 20.8954 120.895 20 122 20C123.105 20 124 20.8954 124 22ZM142 24C143.105 24 144 23.1046 144 22C144 20.8954 143.105 20 142 20C140.895 20 140 20.8954 140 22C140 23.1046 140.895 24 142 24ZM2 44C3.10457 44 4 43.1046 4 42C4 40.8954 3.10457 40 2 40C0.895432 40 0 40.8954 0 42C0 43.1046 0.895432 44 2 44ZM22 44C23.1046 44 24 43.1046 24 42C24 40.8954 23.1046 40 22 40C20.8954 40 20 40.8954 20 42C20 43.1046 20.8954 44 22 44ZM4 62C4 63.1046 3.10457 64 2 64C0.895432 64 0 63.1046 0 62C0 60.8954 0.895432 60 2 60C3.10457 60 4 60.8954 4 62ZM22 64C23.1046 64 24 63.1046 24 62C24 60.8954 23.1046 60 22 60C20.8954 60 20 60.8954 20 62C20 63.1046 20.8954 64 22 64ZM42 44C43.1046 44 44 43.1046 44 42C44 40.8954 43.1046 40 42 40C40.8954 40 40 40.8954 40 42C40 43.1046 40.8954 44 42 44ZM62 44C63.1046 44 64 43.1046 64 42C64 40.8954 63.1046 40 62 40C60.8954 40 60 40.8954 60 42C60 43.1046 60.8954 44 62 44ZM44 62C44 63.1046 43.1046 64 42 64C40.8954 64 40 63.1046 40 62C40 60.8954 40.8954 60 42 60C43.1046 60 44 60.8954 44 62ZM62 64C63.1046 64 64 63.1046 64 62C64 60.8954 63.1046 60 62 60C60.8954 60 60 60.8954 60 62C60 63.1046 60.8954 64 62 64ZM84 42C84 43.1046 83.1046 44 82 44C80.8954 44 80 43.1046 80 42C80 40.8954 80.8954 40 82 40C83.1046 40 84 40.8954 84 42ZM104 42C104 43.1046 103.105 44 102 44C100.895 44 100 43.1046 100 42C100 40.8954 100.895 40 102 40C103.105 40 104 40.8954 104 42ZM82 64C83.1046 64 84 63.1046 84 62C84 60.8954 83.1046 60 82 60C80.8954 60 80 60.8954 80 62C80 63.1046 80.8954 64 82 64ZM104 62C104 63.1046 103.105 64 102 64C100.895 64 100 63.1046 100 62C100 60.8954 100.895 60 102 60C103.105 60 104 60.8954 104 62ZM122 44C123.105 44 124 43.1046 124 42C124 40.8954 123.105 40 122 40C120.895 40 120 40.8954 120 42C120 43.1046 120.895 44 122 44ZM142 44C143.105 44 144 43.1046 144 42C144 40.8954 143.105 40 142 40C140.895 40 140 40.8954 140 42C140 43.1046 140.895 44 142 44ZM124 62C124 63.1046 123.105 64 122 64C120.895 64 120 63.1046 120 62C120 60.8954 120.895 60 122 60C123.105 60 124 60.8954 124 62ZM142 64C143.105 64 144 63.1046 144 62C144 60.8954 143.105 60 142 60C140.895 60 140 60.8954 140 62C140 63.1046 140.895 64 142 64Z" fill="#8DA2ED" fill-opacity="0.5"/>
</svg>
