<svg width="144" height="64" viewBox="0 0 144 64" fill="none" xmlns="http://www.w3.org/2000/svg">
<path fill-rule="evenodd" clip-rule="evenodd" d="M4 2C4 3.10457 3.10457 4 2 4C0.895432 4 0 3.10457 0 2C0 0.895431 0.895432 0 2 0C3.10457 0 4 0.895431 4 2ZM24 2C24 3.10457 23.1046 4 22 4C20.8954 4 20 3.10457 20 2C20 0.895431 20.8954 0 22 0C23.1046 0 24 0.895431 24 2ZM2 24C3.10457 24 4 23.1046 4 22C4 20.8954 3.10457 20 2 20C0.895432 20 0 20.8954 0 22C0 23.1046 0.895432 24 2 24ZM24 22C24 23.1046 23.1046 24 22 24C20.8954 24 20 23.1046 20 22C20 20.8954 20.8954 20 22 20C23.1046 20 24 20.8954 24 22ZM42 4C43.1046 4 44 3.10457 44 2C44 0.895431 43.1046 0 42 0C40.8954 0 40 0.895431 40 2C40 3.10457 40.8954 4 42 4ZM62 4C63.1046 4 64 3.10457 64 2C64 0.895431 63.1046 0 62 0C60.8954 0 60 0.895431 60 2C60 3.10457 60.8954 4 62 4ZM44 22C44 23.1046 43.1046 24 42 24C40.8954 24 40 23.1046 40 22C40 20.8954 40.8954 20 42 20C43.1046 20 44 20.8954 44 22ZM62 24C63.1046 24 64 23.1046 64 22C64 20.8954 63.1046 20 62 20C60.8954 20 60 20.8954 60 22C60 23.1046 60.8954 24 62 24ZM82 4C83.1046 4 84 3.10461 84 2C84 0.895386 83.1046 0 82 0C80.8954 0 80 0.895386 80 2C80 3.10461 80.8954 4 82 4ZM102 4C103.105 4 104 3.10461 104 2C104 0.895386 103.105 0 102 0C100.895 0 100 0.895386 100 2C100 3.10461 100.895 4 102 4ZM84 22C84 23.1046 83.1046 24 82 24C80.8954 24 80 23.1046 80 22C80 20.8954 80.8954 20 82 20C83.1046 20 84 20.8954 84 22ZM102 24C103.105 24 104 23.1046 104 22C104 20.8954 103.105 20 102 20C100.895 20 100 20.8954 100 22C100 23.1046 100.895 24 102 24ZM122 4C123.105 4 124 3.10461 124 2C124 0.895386 123.105 0 122 0C120.895 0 120 0.895386 120 2C120 3.10461 120.895 4 122 4ZM142 4C143.105 4 144 3.10461 144 2C144 0.895386 143.105 0 142 0C140.895 0 140 0.895386 140 2C140 3.10461 140.895 4 142 4ZM124 22C124 23.1046 123.105 24 122 24C120.895 24 120 23.1046 120 22C120 20.8954 120.895 20 122 20C123.105 20 124 20.8954 124 22ZM142 24C143.105 24 144 23.1046 144 22C144 20.8954 143.105 20 142 20C140.895 20 140 20.8954 140 22C140 23.1046 140.895 24 142 24ZM2 44C3.10457 44 4 43.1046 4 42C4 40.8954 3.10457 40 2 40C0.895432 40 0 40.8954 0 42C0 43.1046 0.895432 44 2 44ZM22 44C23.1046 44 24 43.1046 24 42C24 40.8954 23.1046 40 22 40C20.8954 40 20 40.8954 20 42C20 43.1046 20.8954 44 22 44ZM4 62C4 63.1046 3.10457 64 2 64C0.895432 64 0 63.1046 0 62C0 60.8954 0.895432 60 2 60C3.10457 60 4 60.8954 4 62ZM22 64C23.1046 64 24 63.1046 24 62C24 60.8954 23.1046 60 22 60C20.8954 60 20 60.8954 20 62C20 63.1046 20.8954 64 22 64ZM44 42C44 43.1046 43.1046 44 42 44C40.8954 44 40 43.1046 40 42C40 40.8954 40.8954 40 42 40C43.1046 40 44 40.8954 44 42ZM64 42C64 43.1046 63.1046 44 62 44C60.8954 44 60 43.1046 60 42C60 40.8954 60.8954 40 62 40C63.1046 40 64 40.8954 64 42ZM42 64C43.1046 64 44 63.1046 44 62C44 60.8954 43.1046 60 42 60C40.8954 60 40 60.8954 40 62C40 63.1046 40.8954 64 42 64ZM64 62C64 63.1046 63.1046 64 62 64C60.8954 64 60 63.1046 60 62C60 60.8954 60.8954 60 62 60C63.1046 60 64 60.8954 64 62Z" fill="#8DA2ED" fill-opacity="0.5"/>
</svg>
