<svg width="64" height="24" viewBox="0 0 64 24" fill="none" xmlns="http://www.w3.org/2000/svg">
<path fill-rule="evenodd" clip-rule="evenodd" d="M4 2C4 3.10457 3.10457 4 2 4C0.895432 4 0 3.10457 0 2C0 0.895432 0.895432 0 2 0C3.10457 0 4 0.895432 4 2ZM22 4C23.1046 4 24 3.10457 24 2C24 0.895432 23.1046 0 22 0C20.8954 0 20 0.895432 20 2C20 3.10457 20.8954 4 22 4ZM42 4C43.1046 4 44 3.10457 44 2C44 0.895432 43.1046 0 42 0C40.8954 0 40 0.895432 40 2C40 3.10457 40.8954 4 42 4ZM64 2C64 3.10457 63.1046 4 62 4C60.8954 4 60 3.10457 60 2C60 0.895432 60.8954 0 62 0C63.1046 0 64 0.895432 64 2ZM4 22C4 23.1046 3.10457 24 2 24C0.895432 24 0 23.1046 0 22C0 20.8954 0.895432 20 2 20C3.10457 20 4 20.8954 4 22ZM24 22C24 23.1046 23.1046 24 22 24C20.8954 24 20 23.1046 20 22C20 20.8954 20.8954 20 22 20C23.1046 20 24 20.8954 24 22ZM42 24C43.1046 24 44 23.1046 44 22C44 20.8954 43.1046 20 42 20C40.8954 20 40 20.8954 40 22C40 23.1046 40.8954 24 42 24ZM62 24C63.1046 24 64 23.1046 64 22C64 20.8954 63.1046 20 62 20C60.8954 20 60 20.8954 60 22C60 23.1046 60.8954 24 62 24Z" fill="#8DA2ED" fill-opacity="0.5"/>
</svg>
