<svg width="64" height="64" viewBox="0 0 64 64" fill="none" xmlns="http://www.w3.org/2000/svg">
<path fill-rule="evenodd" clip-rule="evenodd" d="M2 4C3.10461 4 4 3.10461 4 2C4 0.895386 3.10461 0 2 0C0.895386 0 0 0.895386 0 2C0 3.10461 0.895386 4 2 4ZM22 4C23.1046 4 24 3.10461 24 2C24 0.895386 23.1046 0 22 0C20.8954 0 20 0.895386 20 2C20 3.10461 20.8954 4 22 4ZM4 22C4 23.1046 3.10461 24 2 24C0.895386 24 0 23.1046 0 22C0 20.8954 0.895386 20 2 20C3.10461 20 4 20.8954 4 22ZM22 24C23.1046 24 24 23.1046 24 22C24 20.8954 23.1046 20 22 20C20.8954 20 20 20.8954 20 22C20 23.1046 20.8954 24 22 24ZM44 2C44 3.10461 43.1046 4 42 4C40.8954 4 40 3.10461 40 2C40 0.895386 40.8954 0 42 0C43.1046 0 44 0.895386 44 2ZM64 2C64 3.10461 63.1046 4 62 4C60.8954 4 60 3.10461 60 2C60 0.895386 60.8954 0 62 0C63.1046 0 64 0.895386 64 2ZM42 24C43.1046 24 44 23.1046 44 22C44 20.8954 43.1046 20 42 20C40.8954 20 40 20.8954 40 22C40 23.1046 40.8954 24 42 24ZM64 22C64 23.1046 63.1046 24 62 24C60.8954 24 60 23.1046 60 22C60 20.8954 60.8954 20 62 20C63.1046 20 64 20.8954 64 22ZM2 44C3.10457 44 4 43.1046 4 42C4 40.8954 3.10457 40 2 40C0.895432 40 0 40.8954 0 42C0 43.1046 0.895432 44 2 44ZM22 44C23.1046 44 24 43.1046 24 42C24 40.8954 23.1046 40 22 40C20.8954 40 20 40.8954 20 42C20 43.1046 20.8954 44 22 44ZM4 62C4 63.1046 3.10457 64 2 64C0.895432 64 0 63.1046 0 62C0 60.8954 0.895432 60 2 60C3.10457 60 4 60.8954 4 62ZM22 64C23.1046 64 24 63.1046 24 62C24 60.8954 23.1046 60 22 60C20.8954 60 20 60.8954 20 62C20 63.1046 20.8954 64 22 64ZM44 42C44 43.1046 43.1046 44 42 44C40.8954 44 40 43.1046 40 42C40 40.8954 40.8954 40 42 40C43.1046 40 44 40.8954 44 42ZM64 42C64 43.1046 63.1046 44 62 44C60.8954 44 60 43.1046 60 42C60 40.8954 60.8954 40 62 40C63.1046 40 64 40.8954 64 42ZM42 64C43.1046 64 44 63.1046 44 62C44 60.8954 43.1046 60 42 60C40.8954 60 40 60.8954 40 62C40 63.1046 40.8954 64 42 64ZM64 62C64 63.1046 63.1046 64 62 64C60.8954 64 60 63.1046 60 62C60 60.8954 60.8954 60 62 60C63.1046 60 64 60.8954 64 62Z" fill="#8DA2ED" fill-opacity="0.5"/>
</svg>
