<svg width="66" height="72" viewBox="0 0 66 72" fill="none" xmlns="http://www.w3.org/2000/svg">
<path fill-rule="evenodd" clip-rule="evenodd" d="M32.8961 0.994141H1.04102L7.50238 63.6904L32.8961 70.9622L58.2908 63.6904L64.7521 0.994141" fill="#0066A9"/>
<path fill-rule="evenodd" clip-rule="evenodd" d="M8.54621 62.9155L32.8974 69.7885L57.2495 62.9155L63.5059 2.03207H2.30998L8.54621 62.9155ZM32.8974 72L6.46072 64.5289L0 0H66L59.5594 64.5289L32.8974 72Z" fill="#111840"/>
<path fill-rule="evenodd" clip-rule="evenodd" d="M53.9373 60.0869L59.1311 5.89844H33.123V65.3465" fill="#13A1D1"/>
<path fill-rule="evenodd" clip-rule="evenodd" d="M32.8967 58.0532L16.8674 53.5908L15.5999 40.8599L23.3079 40.6606L23.7367 47.3148L32.6923 50.1436L42.2611 46.2986V37.1939L15.211 36.8156L14.3723 29.5439L33.7354 21.6352L13.9434 21.2356L13.3301 13.9648H52.6687L52.4643 21.6547L33.3056 29.3446L51.2176 29.5643L49.3358 53.3905" fill="#FEFEFE"/>
</svg>
