<svg width="18" height="19" viewBox="0 0 18 19" fill="none" xmlns="http://www.w3.org/2000/svg">
<path fill-rule="evenodd" clip-rule="evenodd" d="M5.20487 1.60941C4.04188 2.14589 3.05492 2.67055 2.37401 3.45992C1.71702 4.22156 1.37859 5.23085 1.76007 6.74762C2.9511 11.4831 7.04693 15.5604 11.6103 17.2401C12.702 17.5879 13.894 17.3592 14.6557 16.6291C15.4296 15.8873 16.125 14.6378 16.3766 13.565C16.4858 13.0995 16.1441 12.7647 15.7559 12.5723L11.9452 10.6833C11.7985 10.6599 11.6549 10.7151 11.4548 10.9608C11.0592 11.4467 10.835 12.0789 10.566 12.6414C8.60113 11.4307 7.06473 9.90736 6.03801 7.8092C6.55751 7.53285 7.13491 7.28985 7.57273 6.89109C7.81561 6.66989 7.88196 6.49965 7.85684 6.33003L6.03154 2.14062C5.91673 1.76032 5.56095 1.55013 5.20487 1.60941ZM7.1688 1.75686C6.85384 0.780779 5.75949 0.147792 4.76569 0.490543C3.58393 1.03332 2.34774 1.65318 1.46536 2.67612C0.535933 3.75358 0.126127 5.17085 0.596317 7.04032C1.87484 12.1237 6.22377 16.7638 11.2311 18.3786C12.6854 18.8475 14.3601 18.5746 15.486 17.4954C16.4369 16.584 17.2433 15.1248 17.5449 13.8391C17.6736 13.2905 17.5706 12.7895 17.3102 12.377C17.059 11.979 16.6807 11.6914 16.2889 11.4971L12.3005 9.53361C11.4831 9.31708 10.8889 9.75543 10.5243 10.2031C10.3484 10.4191 10.1983 10.6692 10.0727 10.9058C9.05665 10.1945 8.25046 9.36178 7.63982 8.30748C7.88686 8.16218 8.15278 7.98591 8.38075 7.77829C8.80244 7.39423 9.20231 6.79881 9.0164 6.01103L7.1688 1.75686Z" fill="white"/>
</svg>
