<svg width="18" height="19" viewBox="0 0 18 19" fill="none" xmlns="http://www.w3.org/2000/svg">
<path fill-rule="evenodd" clip-rule="evenodd" d="M4.80448 1.61039C3.64149 2.14687 2.65453 2.67153 1.97362 3.4609C1.31663 4.22253 0.978199 5.23182 1.35968 6.7486C2.55071 11.4841 6.64654 15.5614 11.21 17.241C12.3016 17.5889 13.4936 17.3601 14.2553 16.6301C15.0292 15.8883 15.7246 14.6388 15.9762 13.566C16.0854 13.1005 15.7437 12.7657 15.3555 12.5733L11.5448 10.6843C11.3981 10.6608 11.2545 10.7161 11.0544 10.9618C10.6588 11.4477 10.4346 12.0798 10.1656 12.6424C8.20074 11.4317 6.66434 9.90833 5.63762 7.81018C6.15712 7.53383 6.73452 7.29082 7.17234 6.89207C7.41522 6.67086 7.48157 6.50063 7.45645 6.33101L5.63115 2.1416C5.51634 1.7613 5.16056 1.55111 4.80448 1.61039ZM6.76841 1.75784C6.45345 0.781756 5.3591 0.148768 4.3653 0.49152C3.18354 1.0343 1.94735 1.65416 1.06496 2.67709C0.135543 3.75455 -0.274264 5.17182 0.195926 7.0413C1.47445 12.1247 5.82338 16.7648 10.8307 18.3796C12.285 18.8485 13.9597 18.5756 15.0856 17.4964C16.0365 16.585 16.8429 15.1258 17.1445 13.84C17.2732 13.2914 17.1702 12.7905 16.9098 12.3779C16.6586 11.98 16.2803 11.6923 15.8885 11.4981L11.9001 9.53459C11.0827 9.31806 10.4885 9.75641 10.124 10.2041C9.94802 10.4201 9.79788 10.6702 9.67233 10.9067C8.65626 10.1954 7.85007 9.36276 7.23943 8.30846C7.48647 8.16316 7.75239 7.98689 7.98036 7.77926C8.40204 7.39521 8.80192 6.79978 8.61601 6.01201L6.76841 1.75784Z" fill="#8DA2ED"/>
</svg>
