<svg width="16" height="29" viewBox="0 0 16 29" fill="none" xmlns="http://www.w3.org/2000/svg">
<path fill-rule="evenodd" clip-rule="evenodd" d="M1.2 8L1.2 13C1.2 16.7555 4.24446 19.8 8 19.8C11.7555 19.8 14.8 16.7555 14.8 13L14.8 8C14.8 4.24447 11.7555 1.2 8 1.2C4.24446 1.2 1.2 4.24447 1.2 8ZM8 21C12.4183 21 16 17.4183 16 13L16 8C16 3.58172 12.4183 0 8 0C3.58172 0 0 3.58172 0 8V13C0 17.4183 3.58172 21 8 21ZM8 9.99943C7.44772 9.99943 7 9.55172 7 8.99943L7 5.99943C7 5.44715 7.44772 4.99943 8 4.99943C8.55229 4.99943 9 5.44715 9 5.99943V8.99943C9 9.55172 8.55228 9.99943 8 9.99943ZM3.34226 23.3062L8.00002 26.5411L12.6577 23.3062L13.3423 24.2918L8.34229 27.7645L8.00003 28.0022L7.65776 27.7645L2.65774 24.2918L3.34226 23.3062Z" fill="#8DA2ED"/>
</svg>
