<svg width="18" height="12" viewBox="0 0 18 12" fill="none" xmlns="http://www.w3.org/2000/svg">
<path fill-rule="evenodd" clip-rule="evenodd" d="M9 6.46266L1.63228 1.2H16.3677L9 6.46266ZM1.2 9.55163L1.2 2.36591L5.94528 5.7554L1.2 9.55163ZM1.56047 10.8H16.4395L11.0399 6.48028L9.34874 7.68824L9 7.93734L8.65126 7.68824L6.96012 6.48028L1.56047 10.8ZM12.0547 5.7554L16.8 9.55163V2.36591L12.0547 5.7554ZM1.2 0C0.537258 0 0 0.537259 0 1.2V10.8C0 11.4627 0.537258 12 1.2 12H16.8C17.4627 12 18 11.4627 18 10.8V1.2C18 0.537258 17.4627 0 16.8 0H1.2Z" fill="#8DA2ED"/>
</svg>
