<svg width="66" height="72" viewBox="0 0 66 72" fill="none" xmlns="http://www.w3.org/2000/svg">
<path fill-rule="evenodd" clip-rule="evenodd" d="M33.01 0.966797H1.43311L7.63125 63.5388L33.01 70.7971L58.3677 63.5388L64.7683 0.966797" fill="#E4492F"/>
<path fill-rule="evenodd" clip-rule="evenodd" d="M8.66125 62.7506L32.9903 69.5935L57.298 62.7506L63.517 1.97152H2.68474L8.66125 62.7506ZM33.0097 71.9998L6.60212 64.5648L0 0H66L59.4182 64.5648L33.0097 71.9998Z" fill="#131741"/>
<path fill-rule="evenodd" clip-rule="evenodd" d="M53.393 59.9285L58.7632 5.59961H32.7598V65.3517" fill="#E96D31"/>
<path fill-rule="evenodd" clip-rule="evenodd" d="M42.046 46.2451L32.7593 49.8734L23.6933 47.0535V41.0197L15.2136 40.8031L16.2431 52.6746L32.5559 57.9L49.2333 53.0685L51.3134 29.3057H21.8358L21.0078 21.2792H51.939L52.3631 13.4102H12.5684L14.85 36.9572H42.0661" fill="white"/>
</svg>
